<svg id="Layer_1" data-name="Layer 1" xmlns="http://www.w3.org/2000/svg" viewBox="0 0 993.3 186.6"><defs><style>.cls-1{fill:#020203;}</style></defs><polygon class="cls-1" points="113 2.9 0 2.9 0 183.3 13.9 183.3 13.9 98.6 98.6 98.6 98.6 85.2 13.9 85.2 13.9 16.4 113 16.4 113 2.9"/><path class="cls-1" d="M192.6,54.9c-17.6,0-34.8,11.8-41,27.8l-.3-26.2v-.4H139.4V183.3h13.4V122.2c0-20.3,5.2-54.5,39.8-54.5a53.23,53.23,0,0,1,12.3,1.2l.5.1V55.5l-.3-.1A104.51,104.51,0,0,0,192.6,54.9Z"/><path class="cls-1" d="M278,52.9c-17.6,0-32.6,7.7-43.3,22.1-8.5,11.6-12.5,25.9-12.5,45.2,0,19.1,5.6,35.8,16.3,48.3,10.5,12,24.1,18.1,40.5,18.1a50.59,50.59,0,0,0,36.4-14.8A47.16,47.16,0,0,0,329.7,145l.1-.5H315.9l-.1.3c-1.3,6.7-4.3,12.3-9.5,17.8-6.8,7.1-16.5,11-27.3,11-12.6,0-22.8-4.5-30.3-13.3-8-9.5-12.7-23-13-37.3h96.5v-.4c0-1.5.1-2.9.1-4.2s.1-2.7.1-4.2c0-16.3-5.1-31.5-14.3-42.8C308.1,59.4,294.2,52.9,278,52.9Zm-42,57.8c.2-26.2,17.8-45.2,42.1-45.2,26,0,40.2,22.7,40.8,45.2Z"/><path class="cls-1" d="M501.4,52.9c-18.7,0-33.1,9.4-40.6,26.6-4.1-12.4-14.4-26.6-40-26.6-16.6,0-30.7,8.9-38.1,23.9l-1.4-20.3v-.4H369.4V183.3h13.4V119.7c0-21,5.1-36.4,15-45.7,5.9-5.6,13.4-8.5,22.2-8.5,20.4,0,29.9,11,29.9,34.7v83h13.7V111.3c0-15.3,5.1-28.2,14.8-37.4a31.2,31.2,0,0,1,22.2-8.5c20.3,0,29.7,11,29.7,34.7v83h13.4V99.3C543.8,69.4,528.7,52.9,501.4,52.9Z"/><path class="cls-1" d="M608.9,18.1l-13.4,3.2V56.1H570.2V68.5h25.3v79.2c0,24.4,11.4,37.3,33,37.3,6.8,0,13.3-1.4,20.2-2.9l1.2-.2V170.1l-.5.1c-6.2,1.1-12.9,2.3-19.9,2.3-14.4,0-20.6-7.5-20.6-25.1V68.7H684V183.5h14.2V56.2H608.9Z"/><path class="cls-1" d="M803.2,52.9c-17.9,0-35.1,10.3-42.4,25.1l-1.4-21.9H747.5V183.3h13.4V119.7c0-10.4,1.6-25.3,9.3-37.1,7.2-11,18.1-16.6,32.3-16.6,21.7,0,32.2,11.2,32.2,34.2v83h13.4V99.4C848.1,69.9,831.7,52.9,803.2,52.9Z"/><path class="cls-1" d="M691,2.4a10.2,10.2,0,1,0,10.2,10.2A10.24,10.24,0,0,0,691,2.4Z"/><path class="cls-1" d="M979.7,0V76.1c-7.4-13.8-24.3-23.3-41.8-23.3-13.9,0-25.6,4.5-34.6,13.3C890.7,78,883.5,97.6,883.5,120c0,23.5,7.4,42.9,20.9,54.6,9,7.9,20.4,12,33.9,12,17.4,0,34.7-10.2,41.7-24.4l1.4,21.1h11.9V0ZM963.9,163.4a35.73,35.73,0,0,1-25.5,10c-10,0-18.1-2.9-24.8-8.7-10.7-9.5-16.6-25.5-16.6-45,0-17.8,5-32.9,14-42.7,7.1-7.4,15.9-11,26.8-11,10.7,0,19.5,3.3,26.3,9.8,10.8,10.1,15.8,24,15.8,43.9C980,138.3,974.6,153,963.9,163.4Z"/></svg>