<svg xmlns="http://www.w3.org/2000/svg" version="1.2" viewBox="0 0 1549 385" width="634.3009241185625" height="157.65387720183767">
	<style>
		.s0 { fill: #060948 } 
	</style>
	<g>
		<g>
			<path fill-rule="evenodd" class="s0" d="m1548.5 193c0 92.6-65.2 169.7-152.2 188.4l-9.7-8.3c0 0-3.6-12.4-3.6-13.6 0-1.5 10-15.7 10-15.7 0 0 1.6 0 3.3 0 1.3 0 6.6-18.6 8.2-24.7 8-0.5 19.9-1.8 24.4-4 0.6-1.8 0.2-8-0.5-15.5 10.2 0.7 26.1 1.6 26.5 1.6 0.3 0 5.1-3.8 5.1-3.8 0.1-38.7 0-40.1 0-41.8 0-0.5-7.3-4.2-11.7-6.4 1.4-1.6 2.4-4 2.4-6.5 0-0.6-0.2-1.1-0.2-1.7 3.1-1.8 6-4.2 6-7.1 0-2.5-4-10.2-5.5-13.3 0 0-0.9-26.8-1.8-27.6-0.7-0.5-4.2 0.4-4.2 0.4l-11.9-23.3c0 0-8.9-41.3-11.8-43.1-2.4-1.5-16.6-10.2-20.6-12.6-0.6-1.3-0.9-2.4-0.9-2.7 0-1.7 0.7-8.8 0.7-11.9 0-3.1-6.2-13.1-6.2-14.8 0 0 0.5-18 0.5-19.9 0-1.8-4.7-6.7-10.2-7.8-1.6-0.4-14.4-0.9-16 0.2-3 1.8-14.1 9.3-14.6 11.3-0.4 1.3-0.2 14.6-1 17.3-0.9 2.8-4.7 6.2-4.9 8.1-0.3 2.5-1.6 12.7-1.8 14.9-0.2 0.6-0.5 1.1-1.1 1.8-5.7 2.6-19.5 8.8-20.8 9.5-4.9 2.9-22.3 26.3-22.3 26.3-0.1 0-6.2-1.8-9.6-2.7 0.7-1.1 1.1-2.2 0.9-3.1-0.4-1.7-4-10.4-4.9-11.7-0.4-0.4-2.8-0.4-5.7 0l-7.1-111.9c24.4-11.1 51.4-17.3 80.1-17.3 106.4 0 192.7 86.3 192.7 193zm-106.2 67.4l0.1 0.3-6.2 12.3h-0.3l-7-12.6 0.2-0.4zm-10 17.3v0.4l-7.7 13.5-0.1-0.2-1-28.8 0.2-0.2zm17 15.5l-9.1-14.8v-0.3l9.3-16.8 0.2 0.2v31.4zm-28.7-86.9c0 0-1.5 1.8-1.5 3.1-0.1 1.5 7.7 10 9.5 12.6 0.4 0.7 0.8 1.3 0.9 1.6-1.2 2.6-0.9 13.2-0.3 14.3 0.5 0.9 3.8 1.3 4.4 1.4-0.2 0.9-0.4 1.9-0.4 3 0 2.3 0.7 4.5 2 6.2l-13.5 6.7c0 0-10.8-50.9-12.2-53.3l-4-7.1c0 0-0.4-8.7-0.6-13.9h0.4zm-81 129.8l5.8 31-0.2 10.8-4.2 6.7c-14.7-1.1-29-3.8-42.7-8l-12.5-198.9c3.1 1.8 9.3 5.3 14.9 5.8 8 1 32.3-23 33.2-23h0.7c0.2 5.7 0.4 28.9 0 30-0.3 1.3-4.9 4.7-5.8 6-1.4 2-19.9 114.2-17.9 116.6 1.9 2.2 8.6 3.5 23 4.7 0.2 3.1 1.7 15.5 1.8 16.3 0.4 0.9 3.9 2 3.9 2zm91-43.1v-0.2l5.5-8.9h0.2l6.4 9.8-0.2 0.4zm-160.2-126.4l12.9 205.2c-71.7-28.1-122.4-97.6-122.4-179.1 0-73 40.5-136.5 100.4-169.2l6.9 108c-1.6 0.6-2.7 1.1-3.1 1.5-1.1 2-4.7 8.4-4.9 13.9-0.4 5.8 4 15.7 6.4 17.8 0.9 1 2.3 1.5 3.8 1.9z"/>
		</g>
		<g>
			<path fill-rule="evenodd" class="s0" d="m610.4 130.1c-8 0-14.5-6.5-14.5-14.5 0-8 6.5-14.5 14.5-14.5 8 0 14.5 6.5 14.5 14.5 0 8-6.5 14.5-14.5 14.5zm-11.1 28.6c0-2.1 1.9-4.2 4.1-4.2h13.8c2.2 0 4.2 1.9 4.2 4.2v105.3h-18c-2.2 0-4.1-1.8-4.1-4.2zm203.9-28.6c-8 0-14.5-6.5-14.5-14.5 0-8 6.5-14.5 14.5-14.5 8.1 0 14.5 6.5 14.5 14.5 0 8-6.4 14.5-14.5 14.5zm-11 28.6c0-2.2 1.8-4.2 4.2-4.2h13.9c2.1 0 4.2 1.9 4.2 4.2v105.3h-18.1c-2.2 0-4.2-1.8-4.2-4.2zm-34.3-55.8v161.1h-17.3c-2.4 0-4.2-2-4.2-4.2v-5.8c-9 8-20.8 12.4-33.8 12.4-9.7 0-19.9-3-27.4-7.3-16.6-9.9-27.9-27.9-27.9-49.8 0-21.9 11.5-40.2 28.1-50 7.5-4.4 16.6-7 26.8-7 11.9 0 23.8 3.7 33.6 11.9v-61.3c0-2.4 2-4.2 4.2-4.2h13.9c2.2 0 4.2 1.8 4 4.2zm-21.9 85.7c-6.7-8.7-17.9-15.5-31.2-15.5-21.3 0-35.2 17-35.2 36.2 0 19.5 15.1 36.1 36.3 36.1 11.3 0 22.6-5.7 30.1-15.7zm215.1-29.9v100.5c0 16.2-2.2 27.2-6.6 35.8-8.9 16.9-25.5 27-47.2 27-28.5 0-46.4-14.4-53.3-25.4l12.8-11.8c0 0 0.2-0.2 0.3-0.4 1.5-1.3 3.7-1.5 5.2-0.2 7.4 9.3 17.5 16.8 33.7 16.8 11.9 0 21.2-4.4 26.5-12.6 3.8-6 6-14.4 6-28.1v-6c-8.8 7.6-20.1 11.8-33 11.8-9.7 0-19.9-2.9-27.4-7.3-16.6-9.8-27.9-27.9-27.9-49.8 0-21.9 11.7-40.1 28.1-50 7.5-4.3 16.6-6.9 26.8-6.9 12.4 0 24.3 3.8 34.3 12.4v-5.8c0-2.4 2-4.2 4.2-4.2h13.1c2.2 0 4 1.8 4.4 4.2zm-22.6 70.9v-41c-6.8-8.8-17.9-15.5-31.2-15.5-21.2 0-35 17-35 36.1 0 19.5 15.1 36.1 36.3 36.1 11.3 0 22.6-5.6 30.1-15.7zm-593.4-19.5c-0.1 2-2.1 3.7-4.3 3.7h-80.1c1.2 18.4 16.2 33 35.4 33 13.6 0 22-5.5 28.1-11.5 0 0 0.7-0.7 1.2-1.1 1.3-0.7 3-0.9 4.4 0l12.1 11.5c-8.3 10.4-23.9 20.4-46.2 20.4-31.9 0-56.6-24.2-56.6-56.9 0-32.6 22.3-56.9 53.3-56.9 30.5 0 52.6 24.6 52.6 56.9 0 0.2 0 0.9 0.1 0.9zm-23.3-14.9c-3.3-13.9-15.9-23.8-28.8-23.8-14.1 0-27 9.5-30.7 23.8zm770.5 14.9c-0.2 2-2.2 3.7-4.4 3.7h-80.1c1.1 18.4 16.3 33 35.4 33 13.9 0 22.1-5.5 28.1-11.5 0 0 0.7-0.7 1.3-1.1 1.3-0.7 2.9-0.9 4.4 0l12 11.5c-8 10.4-23.7 20.4-46 20.4-31.9 0-56.5-24.2-56.5-56.9 0-32.6 22.2-56.9 53.3-56.9 30.4 0 52.5 24.6 52.5 56.9 0 0.2 0 0.6 0 0.9zm-23.2-14.9c-3.3-13.9-15.7-23.8-28.8-23.8-14.2 0-27 9.5-30.7 23.8zm-867-65.2c-8.1 0-14.6-6.5-14.6-14.5 0-8 6.5-14.5 14.6-14.5 8 0 14.5 6.5 14.5 14.5 0 8-6.5 14.5-14.5 14.5zm11 143.3c0 14.6-2 23.7-6.9 30.6-7.9 11.5-21 18.3-35.8 18.3-4.7 0-10-0.8-13-1.7l3.7-16.2c0.5-2.2 2.7-3.7 4.9-3.3l4 0.2c6.2 0 13-2.8 16.8-7.7 3.1-4 4.2-9.5 4.2-19.5v-115.3c0-2.2 1.8-4.2 4.2-4.2h13.9c2.2 0 4.2 1.8 4.2 4.2v110.4zm263.6-62.6v53.4h-17.9c-2.3 0-4.2-2-4.2-4.2v-46.5l-0.1-4c0-14.1-2.6-20.4-6.6-25.4-5.1-6.5-13.5-10.7-22.6-10.7-14.4 0-24.8 7.6-31.4 15.5v71c0 2.3-2 4.2-4.2 4.2h-13.9c-2.4 0-4.2-2.1-4.2-4.2v-101.1c0-2.4 2-4.2 4.2-4.2h13.2c2.1 0 4 2 4 4.2v6.2c5.8-5.7 16.9-12.8 32.8-12.8 16.1 0 30.5 7.5 39.8 19.3 6.9 9 10.7 20.1 11.1 39.3zm31.6 27c1.4-1.7 4-1.8 5.6-0.6 9.3 6.2 19.2 9.5 28.9 9.5 9.6 0 19.1-5.1 19.1-13.7 0-12.6-18.2-13.3-34.3-18.6-13.3-4.4-25.2-12.7-25.2-28.1 0-23.3 21-34.1 40.5-34.1 13.9 0 24.7 3.8 32.9 9.5l0.5 0.5c1.7 1.7 1.9 3.7 0.2 5.9l-0.4 0.5-5.8 8.1c-1.3 1.8-3.8 2.3-5.8 1.2-6-3.8-12.6-6.4-20.1-6.4-10.8 0-19.9 5.2-19.9 13.7 0 7.5 8.6 10.1 19.5 12.8 17.2 4.4 39.8 12 39.8 34.7 0 20.8-19.3 33.5-40.7 33.5-17.3 0-32.1-5.2-44.1-15.1zm-350.5-1.8c-14.1 17.7-38.1 30.3-63.3 30.3-48.7 0-84.5-35.6-84.5-83.8 0-47.1 35.4-83.7 82.3-84.1 21.9 0 42.5 8.4 56.7 22.3 0 0.1 0 0.1 0 0.1 0.2 0.2 0.2 0.4 0.4 0.6 1.1 1.6 0.9 3.6-0.4 5.1-0.2 0-0.2 0.2-0.2 0.2l-9.8 9.6h0.2c0 0 0 0.2-0.2 0.2-1.6 1.3-4 1.3-5.5-0.2-9.8-8.9-25.2-15.5-41-15.5-33.2 0-59.1 26.5-59.1 61.7 0 36.7 26.4 61.7 61.1 61.7 17.1 0 31.4-6.6 39.9-15.2v-41.9h-42.5c-2 0-3.8-1.7-4-3.9v-18.2h65.7c2.4 0 4.2 2 4.2 4.2zm406.7-58zm-56.4 60q0.3 0 0 0z"/>
		</g>
	</g>
</svg>